{
  "accessors": [
    {
      "bufferView": 0,
      "componentType": 5125,
      "count": 165120,
      "type": "SCALAR"
    },
    {
      "bufferView": 1,
      "componentType": 5126,
      "count": 29024,
      "max": [
        10.6367406845093,
        9.06815433502197,
        5.85477495193481
      ],
      "min": [
        -5.85477638244629,
        -6.10503387451172,
        -5.85477781295776
      ],
      "type": "VEC3"
    },
    {
      "bufferView": 2,
      "componentType": 5126,
      "count": 29024,
      "type": "VEC3"
    },
    {
      "bufferView": 3,
      "componentType": 5126,
      "count": 29024,
      "type": "VEC4"
    },
    {
      "bufferView": 4,
      "componentType": 5126,
      "count": 29024,
      "type": "VEC2"
    }
  ],
  "asset": {
    "generator": "Adobe Substance 3D Painter 8.2.0",
    "version": "2.0"
  },
  "bufferViews": [
    {
      "buffer": 0,
      "byteLength": 660480,
      "target": 34963
    },
    {
      "buffer": 0,
      "byteLength": 348288,
      "byteOffset": 660480,
      "target": 34962
    },
    {
      "buffer": 0,
      "byteLength": 348288,
      "byteOffset": 1008768,
      "target": 34962
    },
    {
      "buffer": 0,
      "byteLength": 464384,
      "byteOffset": 1357056,
      "target": 34962
    },
    {
      "buffer": 0,
      "byteLength": 232192,
      "byteOffset": 1821440,
      "target": 34962
    }
  ],
  "buffers": [
    {
      "byteLength": 2053632,
      "uri": "무제.bin"
    }
  ],
  "images": [
    {
      "uri": "initialShadingGroup_baseColor.png"
    },
    {
      "uri": "initialShadingGroup_occlusionRoughnessMetallic.png"
    },
    {
      "uri": "initialShadingGroup_normal.png"
    }
  ],
  "materials": [
    {
      "alphaMode": "OPAQUE",
      "name": "initialShadingGroup",
      "normalTexture": {
        "index": 2
      },
      "occlusionTexture": {
        "index": 1
      },
      "pbrMetallicRoughness": {
        "baseColorTexture": {
          "index": 0
        },
        "metallicRoughnessTexture": {
          "index": 1
        }
      }
    }
  ],
  "meshes": [
    {
      "name": "cup1",
      "primitives": [
        {
          "attributes": {
            "NORMAL": 2,
            "POSITION": 1,
            "TANGENT": 3,
            "TEXCOORD_0": 4
          },
          "indices": 0,
          "material": 0,
          "mode": 4
        }
      ]
    }
  ],
  "nodes": [
    {
      "children": [
        1
      ],
      "name": "cup2.obj"
    },
    {
      "children": [
        2
      ],
      "name": "cup1"
    },
    {
      "mesh": 0,
      "name": "cup1"
    }
  ],
  "samplers": [
    {
      "magFilter": 9729,
      "minFilter": 9985,
      "wrapS": 10497,
      "wrapT": 10497
    }
  ],
  "scene": 0,
  "scenes": [
    {
      "name": "Scene",
      "nodes": [
        0
      ]
    }
  ],
  "textures": [
    {
      "sampler": 0,
      "source": 0
    },
    {
      "sampler": 0,
      "source": 1
    },
    {
      "sampler": 0,
      "source": 2
    }
  ]
}